<?xml version="1.0" encoding="utf-8"?>
<!-- Generator: Adobe Illustrator 21.1.0, SVG Export Plug-In . SVG Version: 6.00 Build 0)  -->
<svg version="1.1" id="Layer_1" xmlns="http://www.w3.org/2000/svg" xmlns:xlink="http://www.w3.org/1999/xlink" x="0px" y="0px"
	 viewBox="0 0 500 225" style="enable-background:new 0 0 500 225;" xml:space="preserve">
<style type="text/css">
	.st0{fill:#818181;}
</style>
<g>
	<path class="st0" d="M108.5,90.3h19.1v26c-3.1,1-6.1,1.7-9,2.2c-2.9,0.4-6,0.6-9.3,0.6c-7.8,0-13.9-2.3-18.1-7
		c-4.3-4.6-6.4-11.2-6.4-19.7c0-8.3,2.4-14.9,7.2-19.6c4.8-4.7,11.4-7.1,19.8-7.1c5.4,0,10.5,1,15.4,3.1l-3,7.1
		c-4.2-1.9-8.4-2.9-12.6-2.9c-5.5,0-9.9,1.7-13.1,5.2c-3.2,3.5-4.8,8.2-4.8,14.2c0,6.3,1.4,11.1,4.3,14.4c2.9,3.3,7.1,4.9,12.5,4.9
		c2.7,0,5.7-0.3,8.8-1V97.6h-10.7V90.3z"/>
	<path class="st0" d="M142,118.4V66.6h8.5v51.8H142z"/>
	<path class="st0" d="M187.3,90.3h19.1v26c-3.1,1-6.1,1.7-9,2.2c-2.9,0.4-6,0.6-9.3,0.6c-7.8,0-13.9-2.3-18.1-7
		c-4.3-4.6-6.4-11.2-6.4-19.7c0-8.3,2.4-14.9,7.2-19.6c4.8-4.7,11.4-7.1,19.8-7.1c5.4,0,10.5,1,15.4,3.1l-3,7.1
		c-4.2-1.9-8.4-2.9-12.6-2.9c-5.5,0-9.9,1.7-13.1,5.2c-3.2,3.5-4.8,8.2-4.8,14.2c0,6.3,1.4,11.1,4.3,14.4c2.9,3.3,7.1,4.9,12.5,4.9
		c2.7,0,5.7-0.3,8.8-1V97.6h-10.7V90.3z"/>
	<path class="st0" d="M259.5,118.4H251V73.9h-15.2v-7.3h39v7.3h-15.2V118.4z"/>
	<path class="st0" d="M314,118.4h-29.3V66.6H314v7.2h-20.8v14.1h19.5V95h-19.5v16.3H314V118.4z"/>
	<path class="st0" d="M349.2,73.1c-4.9,0-8.7,1.7-11.5,5.2c-2.8,3.5-4.2,8.2-4.2,14.3c0,6.4,1.3,11.2,4,14.4s6.6,4.9,11.6,4.9
		c2.2,0,4.3-0.2,6.4-0.7c2.1-0.4,4.2-1,6.4-1.7v7.3c-4.1,1.5-8.7,2.3-13.8,2.3c-7.6,0-13.4-2.3-17.5-6.9c-4.1-4.6-6.1-11.2-6.1-19.7
		c0-5.4,1-10.1,3-14.1s4.8-7.1,8.6-9.3c3.7-2.1,8.1-3.2,13.2-3.2c5.3,0,10.2,1.1,14.7,3.3l-3,7.1c-1.7-0.8-3.6-1.6-5.5-2.2
		S351.3,73.1,349.2,73.1z"/>
	<path class="st0" d="M415.9,118.4h-8.5V95.1h-23.9v23.4h-8.5V66.6h8.5v21.2h23.9V66.6h8.5V118.4z"/>
</g>
<g>
	<path class="st0" d="M95.4,152.1c-1.9,0-3.3-0.5-4.3-1.6c-1-1.1-1.5-2.7-1.5-4.7c0-2.1,0.5-3.7,1.5-4.8c1-1.1,2.5-1.7,4.4-1.7
		c1.3,0,2.5,0.2,3.5,0.7l-0.8,2.1c-1.1-0.4-2-0.7-2.8-0.7c-2.1,0-3.2,1.4-3.2,4.3c0,1.4,0.3,2.4,0.8,3.1c0.5,0.7,1.3,1,2.4,1
		c1.2,0,2.3-0.3,3.3-0.9v2.3c-0.5,0.3-1,0.5-1.5,0.6C96.8,152,96.2,152.1,95.4,152.1z"/>
	<path class="st0" d="M118.8,145.6c0,2-0.5,3.6-1.6,4.8s-2.5,1.7-4.3,1.7c-1.2,0-2.2-0.3-3.1-0.8s-1.6-1.3-2.1-2.3
		c-0.5-1-0.7-2.1-0.7-3.4c0-2,0.5-3.6,1.5-4.7c1-1.1,2.5-1.7,4.4-1.7c1.8,0,3.2,0.6,4.3,1.7C118.3,142.1,118.8,143.7,118.8,145.6z
		 M109.8,145.6c0,2.9,1.1,4.3,3.2,4.3c2.1,0,3.1-1.4,3.1-4.3c0-2.8-1.1-4.3-3.2-4.3c-1.1,0-1.9,0.4-2.4,1.1
		C110,143.2,109.8,144.3,109.8,145.6z"/>
	<path class="st0" d="M138.8,151.9h-2.7v-7.6c0-1-0.2-1.7-0.6-2.1c-0.4-0.5-1-0.7-1.8-0.7c-1.1,0-1.9,0.3-2.4,1s-0.8,1.8-0.8,3.3
		v6.2h-2.6v-12.4h2.1l0.4,1.6h0.1c0.4-0.6,0.9-1,1.6-1.4c0.7-0.3,1.5-0.5,2.3-0.5c3,0,4.5,1.5,4.5,4.5V151.9z"/>
	<path class="st0" d="M159.4,151.9h-2.7v-7.6c0-1-0.2-1.7-0.6-2.1c-0.4-0.5-1-0.7-1.8-0.7c-1.1,0-1.9,0.3-2.4,1s-0.8,1.8-0.8,3.3
		v6.2h-2.6v-12.4h2.1l0.4,1.6h0.1c0.4-0.6,0.9-1,1.6-1.4c0.7-0.3,1.5-0.5,2.3-0.5c3,0,4.5,1.5,4.5,4.5V151.9z"/>
	<path class="st0" d="M174.6,152.1c-1.9,0-3.4-0.6-4.5-1.7c-1.1-1.1-1.6-2.7-1.6-4.7c0-2,0.5-3.6,1.5-4.8c1-1.2,2.4-1.7,4.2-1.7
		c1.6,0,2.9,0.5,3.9,1.5c1,1,1.4,2.4,1.4,4.1v1.4h-8.3c0,1.2,0.4,2.1,1,2.8s1.5,1,2.6,1c0.7,0,1.4-0.1,2-0.2c0.6-0.1,1.3-0.4,2-0.7
		v2.1c-0.6,0.3-1.3,0.5-2,0.7C176.1,152,175.4,152.1,174.6,152.1z M174.1,141.2c-0.8,0-1.5,0.3-2,0.8c-0.5,0.5-0.8,1.3-0.9,2.3h5.6
		c0-1-0.3-1.8-0.7-2.3C175.6,141.5,174.9,141.2,174.1,141.2z"/>
	<path class="st0" d="M193.4,152.1c-1.9,0-3.3-0.5-4.3-1.6c-1-1.1-1.5-2.7-1.5-4.7c0-2.1,0.5-3.7,1.5-4.8c1-1.1,2.5-1.7,4.4-1.7
		c1.3,0,2.5,0.2,3.5,0.7l-0.8,2.1c-1.1-0.4-2-0.7-2.8-0.7c-2.1,0-3.2,1.4-3.2,4.3c0,1.4,0.3,2.4,0.8,3.1c0.5,0.7,1.3,1,2.4,1
		c1.2,0,2.3-0.3,3.3-0.9v2.3c-0.5,0.3-1,0.5-1.5,0.6C194.8,152,194.2,152.1,193.4,152.1z"/>
	<path class="st0" d="M210.4,150c0.6,0,1.3-0.1,1.9-0.3v2c-0.3,0.1-0.7,0.2-1.1,0.3c-0.5,0.1-0.9,0.1-1.4,0.1c-2.5,0-3.8-1.3-3.8-4
		v-6.7h-1.7v-1.2l1.8-1l0.9-2.6h1.6v2.8h3.5v2h-3.5v6.6c0,0.6,0.2,1.1,0.5,1.4C209.5,149.8,209.9,150,210.4,150z"/>
	<path class="st0" d="M220.7,136.2c0-0.5,0.1-0.8,0.4-1.1c0.3-0.3,0.6-0.4,1.1-0.4c0.5,0,0.8,0.1,1.1,0.4c0.3,0.3,0.4,0.6,0.4,1.1
		c0,0.4-0.1,0.8-0.4,1.1c-0.3,0.3-0.6,0.4-1.1,0.4c-0.5,0-0.8-0.1-1.1-0.4C220.9,137,220.7,136.6,220.7,136.2z M223.5,151.9h-2.6
		v-12.4h2.6V151.9z"/>
	<path class="st0" d="M244.3,151.9h-2.7v-7.6c0-1-0.2-1.7-0.6-2.1c-0.4-0.5-1-0.7-1.8-0.7c-1.1,0-1.9,0.3-2.4,1s-0.8,1.8-0.8,3.3
		v6.2h-2.6v-12.4h2.1l0.4,1.6h0.1c0.4-0.6,0.9-1,1.6-1.4c0.7-0.3,1.5-0.5,2.3-0.5c3,0,4.5,1.5,4.5,4.5V151.9z"/>
	<path class="st0" d="M264.4,139.4v1.4l-2.1,0.4c0.2,0.3,0.4,0.6,0.5,1s0.2,0.8,0.2,1.2c0,1.3-0.4,2.3-1.3,3
		c-0.9,0.7-2.1,1.1-3.6,1.1c-0.4,0-0.8,0-1.1-0.1c-0.6,0.4-0.9,0.8-0.9,1.2c0,0.3,0.1,0.5,0.4,0.6c0.3,0.1,0.8,0.2,1.5,0.2h2.2
		c1.4,0,2.4,0.3,3.1,0.9c0.7,0.6,1.1,1.4,1.1,2.5c0,1.4-0.6,2.5-1.7,3.3c-1.2,0.8-2.8,1.1-5,1.1c-1.7,0-3-0.3-3.9-0.9
		s-1.3-1.5-1.3-2.6c0-0.8,0.2-1.4,0.7-1.9c0.5-0.5,1.2-0.9,2-1.1c-0.4-0.1-0.6-0.4-0.9-0.7c-0.2-0.3-0.3-0.7-0.3-1
		c0-0.5,0.1-0.9,0.4-1.2c0.3-0.3,0.7-0.6,1.2-1c-0.6-0.3-1.2-0.7-1.6-1.4s-0.6-1.4-0.6-2.2c0-1.3,0.4-2.4,1.3-3.1
		c0.8-0.7,2.1-1.1,3.6-1.1c0.4,0,0.7,0,1.1,0.1s0.7,0.1,0.9,0.2H264.4z M254.7,153.8c0,0.6,0.3,1,0.8,1.3c0.5,0.3,1.2,0.5,2.2,0.5
		c1.4,0,2.5-0.2,3.2-0.6c0.7-0.4,1.1-1,1.1-1.6c0-0.5-0.2-0.9-0.6-1.2s-1.1-0.3-2.2-0.3h-2c-0.8,0-1.4,0.2-1.8,0.5
		S254.7,153.2,254.7,153.8z M255.8,143.5c0,0.8,0.2,1.4,0.6,1.8s1,0.6,1.7,0.6c1.5,0,2.3-0.8,2.3-2.4c0-0.8-0.2-1.4-0.6-1.9
		c-0.4-0.4-1-0.7-1.7-0.7c-0.8,0-1.3,0.2-1.7,0.7C256,142,255.8,142.6,255.8,143.5z"/>
	<path class="st0" d="M289.4,150c0.6,0,1.3-0.1,1.9-0.3v2c-0.3,0.1-0.7,0.2-1.1,0.3c-0.5,0.1-0.9,0.1-1.4,0.1c-2.5,0-3.8-1.3-3.8-4
		v-6.7h-1.7v-1.2l1.8-1l0.9-2.6h1.6v2.8h3.5v2h-3.5v6.6c0,0.6,0.2,1.1,0.5,1.4C288.5,149.8,288.9,150,289.4,150z"/>
	<path class="st0" d="M310.8,151.9h-2.7v-7.6c0-1-0.2-1.7-0.6-2.1c-0.4-0.5-1-0.7-1.8-0.7c-1.1,0-1.9,0.3-2.4,1
		c-0.5,0.7-0.8,1.8-0.8,3.3v6.2h-2.6v-17.5h2.6v4.4c0,0.7,0,1.5-0.1,2.3h0.2c0.4-0.6,0.9-1.1,1.5-1.4c0.6-0.3,1.4-0.5,2.2-0.5
		c3,0,4.5,1.5,4.5,4.5V151.9z"/>
	<path class="st0" d="M325.9,152.1c-1.9,0-3.4-0.6-4.5-1.7c-1.1-1.1-1.6-2.7-1.6-4.7c0-2,0.5-3.6,1.5-4.8c1-1.2,2.4-1.7,4.2-1.7
		c1.6,0,2.9,0.5,3.9,1.5c1,1,1.4,2.4,1.4,4.1v1.4h-8.3c0,1.2,0.4,2.1,1,2.8c0.6,0.6,1.5,1,2.6,1c0.7,0,1.4-0.1,2-0.2s1.3-0.4,2-0.7
		v2.1c-0.6,0.3-1.3,0.5-2,0.7C327.5,152,326.7,152.1,325.9,152.1z M325.4,141.2c-0.8,0-1.5,0.3-2,0.8c-0.5,0.5-0.8,1.3-0.9,2.3h5.6
		c0-1-0.3-1.8-0.7-2.3C326.9,141.5,326.2,141.2,325.4,141.2z"/>
	<path class="st0" d="M355.9,152.1c-1.6,0-2.8-0.6-3.6-1.7s-1.3-2.7-1.3-4.7c0-2,0.4-3.6,1.3-4.8c0.9-1.1,2.1-1.7,3.7-1.7
		c1.6,0,2.9,0.6,3.7,1.8h0.1c-0.1-0.9-0.2-1.6-0.2-2.1v-4.5h2.7v17.5h-2.1l-0.5-1.6h-0.1C358.8,151.5,357.6,152.1,355.9,152.1z
		 M356.6,150c1.1,0,1.9-0.3,2.4-0.9s0.7-1.6,0.8-3v-0.4c0-1.6-0.3-2.7-0.8-3.3c-0.5-0.7-1.3-1-2.4-1c-0.9,0-1.6,0.4-2.1,1.1
		c-0.5,0.8-0.8,1.8-0.8,3.2c0,1.4,0.2,2.4,0.7,3.1C354.9,149.6,355.7,150,356.6,150z"/>
	<path class="st0" d="M383.1,145.6c0,2-0.5,3.6-1.6,4.8s-2.5,1.7-4.3,1.7c-1.2,0-2.2-0.3-3.1-0.8c-0.9-0.5-1.6-1.3-2.1-2.3
		c-0.5-1-0.7-2.1-0.7-3.4c0-2,0.5-3.6,1.5-4.7c1-1.1,2.5-1.7,4.4-1.7c1.8,0,3.2,0.6,4.3,1.7C382.6,142.1,383.1,143.7,383.1,145.6z
		 M374.1,145.6c0,2.9,1.1,4.3,3.2,4.3c2.1,0,3.1-1.4,3.1-4.3c0-2.8-1.1-4.3-3.2-4.3c-1.1,0-1.9,0.4-2.4,1.1S374.1,144.3,374.1,145.6
		z"/>
	<path class="st0" d="M396.8,150c0.6,0,1.3-0.1,1.9-0.3v2c-0.3,0.1-0.7,0.2-1.1,0.3c-0.5,0.1-0.9,0.1-1.4,0.1c-2.5,0-3.8-1.3-3.8-4
		v-6.7h-1.7v-1.2l1.8-1l0.9-2.6h1.6v2.8h3.5v2h-3.5v6.6c0,0.6,0.2,1.1,0.5,1.4C395.9,149.8,396.3,150,396.8,150z"/>
	<path class="st0" d="M415.6,148.3c0,1.2-0.4,2.1-1.3,2.8c-0.9,0.6-2.1,1-3.8,1c-1.7,0-3-0.3-4-0.8v-2.3c1.5,0.7,2.8,1,4.1,1
		c1.6,0,2.4-0.5,2.4-1.5c0-0.3-0.1-0.6-0.3-0.8c-0.2-0.2-0.5-0.4-0.9-0.7c-0.4-0.2-1-0.5-1.7-0.8c-1.4-0.6-2.4-1.1-2.9-1.7
		c-0.5-0.6-0.8-1.3-0.8-2.2c0-1.1,0.4-1.9,1.3-2.5s2-0.9,3.5-0.9c1.5,0,2.8,0.3,4.1,0.9l-0.9,2c-1.3-0.6-2.5-0.8-3.4-0.8
		c-1.4,0-2.1,0.4-2.1,1.2c0,0.4,0.2,0.7,0.5,1s1.2,0.6,2.4,1.1c1,0.4,1.8,0.8,2.2,1.1c0.5,0.3,0.8,0.7,1,1.1
		S415.6,147.7,415.6,148.3z"/>
</g>
<path class="st0" d="M218.4,72c0-1.7,0.4-3,1.3-4c0.9-0.9,2.2-1.4,3.9-1.4c1.7,0,3,0.5,3.9,1.4c0.9,1,1.3,2.3,1.3,3.9
	c0,1.7-0.5,3-1.4,4c-0.9,1-2.2,1.5-3.9,1.5s-3-0.5-3.9-1.5C218.9,75,218.4,73.7,218.4,72z"/>
<path class="st0" d="M218.4,114c0-1.7,0.4-3,1.3-4c0.9-0.9,2.2-1.4,3.9-1.4c1.7,0,3,0.5,3.9,1.4c0.9,1,1.3,2.3,1.3,3.9
	c0,1.7-0.5,3-1.4,4c-0.9,1-2.2,1.5-3.9,1.5s-3-0.5-3.9-1.5C218.9,117,218.4,115.7,218.4,114z"/>
<path class="st0" d="M218.4,93c0-1.7,0.4-3,1.3-4c0.9-0.9,2.2-1.4,3.9-1.4c1.7,0,3,0.5,3.9,1.4c0.9,1,1.3,2.3,1.3,3.9
	c0,1.7-0.5,3-1.4,4c-0.9,1-2.2,1.5-3.9,1.5s-3-0.5-3.9-1.5C218.9,96,218.4,94.7,218.4,93z"/>
</svg>
